<svg xmlns="http://www.w3.org/2000/svg" width="35" height="29" viewBox="0 0 35 29">
  <defs>
    <style>
      .cls-1 {
        fill: #969696;
        fill-rule: evenodd;
      }
    </style>
  </defs>
  <path class="cls-1" d="M17.5,28.964c-5.884,0-16.75-4.472-16.75-10.843S11.617,7.277,17.5,7.277,34.25,11.748,34.25,18.12,23.384,28.964,17.5,28.964Zm0-19.669c-5.557,0-14.75,4.124-14.75,8.826s9.193,8.826,14.75,8.826,14.75-4.125,14.75-8.826S23.057,9.294,17.5,9.294Zm0,14.206a5.3,5.3,0,1,1,5.25-5.3A5.279,5.279,0,0,1,17.5,23.5Zm0-9.583A4.287,4.287,0,1,0,21.75,18.2,4.274,4.274,0,0,0,17.5,13.917Zm-1.964,2.971a0.5,0.5,0,0,1-.338-0.133,0.508,0.508,0,0,1-.029-0.713,3.237,3.237,0,0,1,.322-0.308,0.5,0.5,0,0,1,.7.069,0.508,0.508,0,0,1-.068.71,2.208,2.208,0,0,0-.222.211A0.5,0.5,0,0,1,15.537,16.889ZM17.5,21.4A3.184,3.184,0,0,1,14.333,18.2a0.5,0.5,0,1,1,1,0A2.179,2.179,0,0,0,17.5,20.39,0.5,0.5,0,0,1,17.5,21.4ZM17.438,6.016a1,1,0,0,1-1-1.008V1.981a1,1,0,1,1,2,0V5.007A1,1,0,0,1,17.438,6.016Zm-5.761.343A1,1,0,0,1,10.783,5.8L9.857,3.948A1.012,1.012,0,0,1,10.3,2.593a1,1,0,0,1,1.343.447L12.569,4.9a1.013,1.013,0,0,1-.444,1.354A0.982,0.982,0,0,1,11.677,6.359ZM5.842,8.7A0.993,0.993,0,0,1,5.1,8.363L3.8,6.9a1.014,1.014,0,0,1,.076-1.424,0.993,0.993,0,0,1,1.412.075l1.3,1.459A1.015,1.015,0,0,1,6.51,8.439,0.991,0.991,0,0,1,5.842,8.7ZM22.79,6.359a0.984,0.984,0,0,1-.449-0.108A1.012,1.012,0,0,1,21.9,4.9L22.824,3.04a0.994,0.994,0,0,1,1.343-.447,1.012,1.012,0,0,1,.443,1.354L23.684,5.8A1,1,0,0,1,22.79,6.359ZM28.625,8.7a0.991,0.991,0,0,1-.668-0.259,1.015,1.015,0,0,1-.075-1.424l1.3-1.459a0.994,0.994,0,0,1,1.412-.075A1.015,1.015,0,0,1,30.669,6.9l-1.3,1.459A0.993,0.993,0,0,1,28.625,8.7Z"/>
</svg>
