<svg xmlns="http://www.w3.org/2000/svg" width="22" height="42" viewBox="0 0 22 42"><path d="M18.081 38.887a10 10 0 01-7.088 2.953h-.465a9.955 9.955 0 01-9.983-9.983L.573 21.9a10.079 10.079 0 0110.039-10.042h.465a9.955 9.955 0 019.983 9.983l-.027 9.959a10 10 0 01-2.952 7.087zM4.934 16.22a8.006 8.006 0 00-2.363 5.672l-.028 9.96a7.967 7.967 0 007.99 7.99h.465a8.067 8.067 0 008.035-8.035l.028-9.959a7.968 7.968 0 00-7.99-7.991h-.465a8.006 8.006 0 00-5.672 2.363zm4.127 21.766a.5.5 0 01-.443.139c-3.263-.582-4.948-3.014-4.873-7.032l.007-2.218a.5.5 0 01.5-.5.5.5 0 01.5.5L4.744 31.1c-.066 3.521 1.3 5.551 4.055 6.044a.5.5 0 01.4.579.5.5 0 01-.138.263zm1.875.183a.5.5 0 01-.353.147h-.33a.5.5 0 01-.5-.5.5.5 0 01.5-.5h.33a.5.5 0 01.352.854zM20.409 23.8a.509.509 0 01-.2.122 28.919 28.919 0 01-18.836.039.5.5 0 01.386-.924 28.46 28.46 0 0018.141-.063.5.5 0 01.509.826zm-9.489-1.6a.5.5 0 01-.852-.351l.007-2.5a.5.5 0 01.5-.5.5.5 0 01.5.5l-.007 2.5a.5.5 0 01-.148.351zm1.3-8.634a1 1 0 01-1.356.056c-.1-.085-2.433-2.146-.839-6.795a6.687 6.687 0 00-.495-4.881 1 1 0 011.747-.981 8.71 8.71 0 01.635 6.506c-1.14 3.325.237 4.62.252 4.633a1 1 0 01.106 1.409l-.053.058z" fill="#ff431e" fill-rule="evenodd"/></svg>