<svg xmlns="http://www.w3.org/2000/svg" width="37" height="35" viewBox="0 0 37 35">
  <defs>
    <style>
      .cls-1 {
        fill: #ff431e;
        fill-rule: evenodd;
      }
    </style>
  </defs>
  <path class="cls-1" d="M27.01,34.813H9.9c-3.81,0-4.841-1.258-4.841-5.178V11.857a1.007,1.007,0,0,1,2.013,0V29.635c0,2.855.119,3.181,2.828,3.181H27.01c2.709,0,3.211-.327,3.211-3.181V11.857a1.007,1.007,0,0,1,2.013,0V29.635C32.234,33.555,30.82,34.813,27.01,34.813Zm-4.338-.5a0.5,0.5,0,0,1-.5-0.5V24.346c0-.992-0.192-1.011-1.3-1.011H16.039c-1.107,0-.915.019-0.915,1.011v9.469a0.5,0.5,0,0,1-1.007,0V24.346c0-1.718.46-2.009,1.922-2.009H20.87c1.462,0,2.306.291,2.306,2.009v9.469A0.5,0.5,0,0,1,22.672,34.314ZM1.846,14.831a1.009,1.009,0,0,1-.805-0.4,0.993,0.993,0,0,1,.2-1.4L17.849,0.642a1.013,1.013,0,0,1,1.41.2,0.993,0.993,0,0,1-.2,1.4L2.451,14.63A1.01,1.01,0,0,1,1.846,14.831Zm33.215,0a1.01,1.01,0,0,1-.6-0.2L17.849,2.237a0.993,0.993,0,0,1-.2-1.4,1.013,1.013,0,0,1,1.41-.2L35.667,13.035a0.993,0.993,0,0,1,.2,1.4A1.008,1.008,0,0,1,35.061,14.831ZM9.587,19.342a0.5,0.5,0,0,1-.5-0.5V13.167a0.435,0.435,0,0,1,.1-0.4l6.558-5.022a0.478,0.478,0,0,1,.681.093,0.49,0.49,0,0,1-.009.7L10.09,13.413v5.43A0.5,0.5,0,0,1,9.587,19.342Zm0,2.5a0.5,0.5,0,0,1-.5-0.5v-0.5a0.5,0.5,0,0,1,1.007,0v0.5A0.5,0.5,0,0,1,9.587,21.838Z"/>
</svg>
