<svg xmlns="http://www.w3.org/2000/svg" width="35" height="34" viewBox="0 0 35 34">
  <defs>
    <style>
      .cls-1 {
        fill: #969696;
        fill-rule: evenodd;
      }
    </style>
  </defs>
  <path class="cls-1" d="M25.87,33.22a3.4,3.4,0,0,1-1.591-.4l-6.794-3.632-6.791,3.631A3.44,3.44,0,0,1,7.2,32.637a3.219,3.219,0,0,1-1.371-3.18l1.331-7.894L1.417,15.868a3.158,3.158,0,0,1-.778-3.3A3.285,3.285,0,0,1,3.285,10.4l7.81-1.153,3.392-7a3.354,3.354,0,0,1,6,0l3.393,7L31.685,10.4a3.288,3.288,0,0,1,2.646,2.163,3.163,3.163,0,0,1-.777,3.3l-5.743,5.695,1.332,7.9a3.219,3.219,0,0,1-1.369,3.176A3.371,3.371,0,0,1,25.87,33.22Zm-8.385-6.159a1.006,1.006,0,0,1,.476.119l7.267,3.886a1.394,1.394,0,0,0,1.409-.075,1.207,1.207,0,0,0,.525-1.2l-1.417-8.4a0.994,0.994,0,0,1,.281-0.871l6.11-6.058a1.191,1.191,0,0,0,.3-1.244,1.288,1.288,0,0,0-1.042-.838l-8.335-1.232A1,1,0,0,1,22.3,10.59L18.675,3.119a1.341,1.341,0,0,0-2.38,0l-3.622,7.47a1,1,0,0,1-.757.553L3.58,12.374a1.3,1.3,0,0,0-1.042.84,1.189,1.189,0,0,0,.3,1.241l6.109,6.059a0.993,0.993,0,0,1,.281.87l-1.416,8.4a1.207,1.207,0,0,0,.528,1.2,1.391,1.391,0,0,0,1.41.072L17.01,27.18A1.007,1.007,0,0,1,17.485,27.061Zm-11-12.185a0.5,0.5,0,0,1-.08-0.99l0.333-.054a0.5,0.5,0,1,1,.161.984l-0.333.054A0.474,0.474,0,0,1,6.487,14.876Zm1.843-.3a0.5,0.5,0,0,1-.095-0.988l5.432-1.041,2.049-4.667a0.5,0.5,0,0,1,.661-0.258,0.5,0.5,0,0,1,.26.656l-2.154,4.908a0.5,0.5,0,0,1-.365.29L8.425,14.57A0.513,0.513,0,0,1,8.33,14.579Z"/>
</svg>
