<svg xmlns="http://www.w3.org/2000/svg" width="35" height="34" viewBox="0 0 35 34"><path d="M25.87 33.22a3.4 3.4 0 01-1.591-.4l-6.794-3.632-6.791 3.631a3.44 3.44 0 01-3.494-.182 3.219 3.219 0 01-1.371-3.18l1.331-7.894-5.743-5.695a3.158 3.158 0 01-.778-3.3A3.285 3.285 0 013.285 10.4l7.81-1.153 3.392-7a3.354 3.354 0 016 0l3.393 7 7.805 1.153a3.288 3.288 0 012.646 2.163 3.163 3.163 0 01-.777 3.3l-5.743 5.695 1.332 7.9a3.219 3.219 0 01-1.369 3.176 3.371 3.371 0 01-1.904.586zm-8.385-6.159a1.006 1.006 0 01.476.119l7.267 3.886a1.394 1.394 0 001.409-.075 1.207 1.207 0 00.525-1.2l-1.417-8.4a.994.994 0 01.281-.871l6.11-6.058a1.191 1.191 0 00.3-1.244 1.288 1.288 0 00-1.042-.838l-8.335-1.232a1 1 0 01-.759-.558l-3.625-7.471a1.341 1.341 0 00-2.38 0l-3.622 7.47a1 1 0 01-.757.553L3.58 12.374a1.3 1.3 0 00-1.042.84 1.189 1.189 0 00.3 1.241l6.109 6.059a.993.993 0 01.281.87l-1.416 8.4a1.207 1.207 0 00.528 1.2 1.391 1.391 0 001.41.072l7.26-3.876a1.007 1.007 0 01.475-.119zm-11-12.185a.5.5 0 01-.08-.99l.333-.054a.5.5 0 11.161.984l-.333.054a.474.474 0 01-.079.006zm1.843-.3a.5.5 0 01-.095-.988l5.432-1.041 2.049-4.667a.5.5 0 01.661-.258.5.5 0 01.26.656l-2.154 4.908a.5.5 0 01-.365.29L8.425 14.57a.513.513 0 01-.095.009z" fill="#969696" fill-rule="evenodd"/></svg>