<svg xmlns="http://www.w3.org/2000/svg" width="24" height="35" viewBox="0 0 24 35">
  <defs>
    <style>
      .cls-1 {
        fill: #969696;
        fill-rule: evenodd;
      }
    </style>
  </defs>
  <path class="cls-1" d="M12.036,22.08c-4.729,0-8.187-8.622-8.187-13.11a8.187,8.187,0,1,1,16.373,0C20.223,13.458,16.766,22.08,12.036,22.08Zm0-19.328A6.213,6.213,0,0,0,5.843,8.971c0,3.885,3.183,11.108,6.193,11.108S18.23,12.855,18.23,8.971A6.213,6.213,0,0,0,12.036,2.752ZM7.853,9.707a0.5,0.5,0,0,1-.5-0.5,4.986,4.986,0,0,1,4.97-4.99,0.5,0.5,0,0,1,0,1,3.986,3.986,0,0,0-3.973,3.99A0.5,0.5,0,0,1,7.853,9.707Zm0.175,1.921a0.493,0.493,0,0,1-.354-0.145,0.509,0.509,0,0,1,0-.71,0.514,0.514,0,0,1,.7,0,0.508,0.508,0,0,1,.149.355,0.5,0.5,0,0,1-.149.355A0.481,0.481,0,0,1,8.028,11.628ZM12,34.25c-2.815,0-12-.289-12-4A12.267,12.267,0,0,1,8.5,18.575l0.61-.189,0.426,0.478c1.526,1.711,3.351,1.792,4.988-.033l0.429-.478,0.611,0.194A12.319,12.319,0,0,1,24,30.247C24,33.961,14.811,34.25,12,34.25ZM8.521,20.682a10.274,10.274,0,0,0-6.534,9.564c0,0.551,3.077,2,10.008,2S22,30.8,22,30.247a10.331,10.331,0,0,0-6.472-9.592,5.106,5.106,0,0,1-3.5,1.526A5.119,5.119,0,0,1,8.521,20.682Z"/>
</svg>
