<svg xmlns="http://www.w3.org/2000/svg" width="33" height="33" viewBox="0 0 33 33">
  <defs>
    <style>
      .cls-1 {
        fill: #969696;
        fill-rule: evenodd;
      }
    </style>
  </defs>
  <path id="icon" class="cls-1" d="M16.667,28.477a12.25,12.25,0,1,1,12.251-12.25A12.264,12.264,0,0,1,16.667,28.477Zm0-22.5a10.25,10.25,0,1,0,10.251,10.25A10.261,10.261,0,0,0,16.667,5.977Zm-5.883,4.946a0.5,0.5,0,0,1-.34-0.867A8.44,8.44,0,0,1,13.959,8.1a0.5,0.5,0,1,1,.262.964,7.443,7.443,0,0,0-3.1,1.722A0.5,0.5,0,0,1,10.783,10.923Zm-2.077,3.15a0.5,0.5,0,0,1-.471-0.667,8.362,8.362,0,0,1,.518-1.167,0.5,0.5,0,0,1,.88.475,7.339,7.339,0,0,0-.456,1.027A0.5,0.5,0,0,1,8.706,14.074ZM16.941,9.25a1,1,0,0,1-1-1v-7a1,1,0,1,1,2,0v7A1,1,0,0,1,16.941,9.25Zm0,23.5a1,1,0,0,1-1-1v-7a1,1,0,0,1,2,0v7A1,1,0,0,1,16.941,32.75Zm14.81-15h-7a1,1,0,0,1,0-2h7A1,1,0,0,1,31.75,17.751Zm-23.5,0h-7a1,1,0,0,1,0-2h7A1,1,0,0,1,8.25,17.751Z"/>
</svg>
