<svg xmlns="http://www.w3.org/2000/svg" width="22" height="42" viewBox="0 0 22 42">
  <defs>
    <style>
      .cls-1 {
        fill: #ff431e;
        fill-rule: evenodd;
      }
    </style>
  </defs>
  <path class="cls-1" d="M18.081,38.887a10,10,0,0,1-7.088,2.953H10.528A9.955,9.955,0,0,1,.545,31.857L0.573,21.9A10.079,10.079,0,0,1,10.612,11.858l0.465,0a9.955,9.955,0,0,1,9.983,9.983L21.033,31.8A10,10,0,0,1,18.081,38.887ZM4.934,16.22a8.006,8.006,0,0,0-2.363,5.672L2.543,31.852a7.967,7.967,0,0,0,7.99,7.99l0.465,0a8.067,8.067,0,0,0,8.035-8.035l0.028-9.959a7.968,7.968,0,0,0-7.99-7.991l-0.465,0A8.006,8.006,0,0,0,4.934,16.22ZM9.061,37.986a0.5,0.5,0,0,1-.443.139c-3.263-.582-4.948-3.014-4.873-7.032l0.007-2.218a0.5,0.5,0,0,1,.5-0.5,0.5,0.5,0,0,1,.5.5L4.744,31.1c-0.066,3.521,1.3,5.551,4.055,6.044a0.5,0.5,0,0,1,.4.579A0.5,0.5,0,0,1,9.061,37.986Zm1.875,0.183a0.5,0.5,0,0,1-.353.147l-0.33,0a0.5,0.5,0,0,1-.5-0.5,0.5,0.5,0,0,1,.5-0.5h0.33A0.5,0.5,0,0,1,10.935,38.17ZM20.409,23.8a0.509,0.509,0,0,1-.2.122,28.919,28.919,0,0,1-18.836.039,0.5,0.5,0,0,1,.386-0.924A28.46,28.46,0,0,0,19.9,22.974,0.5,0.5,0,0,1,20.409,23.8ZM10.92,22.2a0.5,0.5,0,0,1-.852-0.351l0.007-2.5a0.5,0.5,0,0,1,.5-0.5,0.5,0.5,0,0,1,.5.5l-0.007,2.5A0.5,0.5,0,0,1,10.92,22.2Zm1.3-8.634a1,1,0,0,1-1.356.056c-0.1-.085-2.433-2.146-0.839-6.795A6.687,6.687,0,0,0,9.53,1.946,1,1,0,0,1,11.277.965a8.71,8.71,0,0,1,.635,6.506c-1.14,3.325.237,4.62,0.252,4.633a1,1,0,0,1,.106,1.409C12.253,13.533,12.235,13.552,12.217,13.571Z"/>
</svg>
